# xmcd
# 
# Track frame offsets:
#     150
#     18793
#     34286
#     49518
#     63947
#     79016
#     92778
#     111139
#     131256
#     148800
#     164833
#     179729
#     199613
#     218820
#     236735
#     255695
#     273557
#     287476
#     301131
# 
# Disc length: 4307
# 
# Revision: 1
# Processed by: cddbd v1.5.2PL0 Copyright (c) Steve Scherf et al.
# Submitted via: BonkEnc v1.0.15
# 
DISCID=1310d113
DTITLE=BORIS NOVKOVIĆ - Zlatna kolekcija - CD 1
DYEAR=2005
DGENRE=Zabavni
TTITLE0=Kuda idu izgubljene djevojke (Tamara)
TTITLE1=Plakat ću sutra
TTITLE2=Mi smo jači i od sudbine
TTITLE3=Da te nisam ljubio
TTITLE4=Glumim da te ne volim
TTITLE5=Nena
TTITLE6=Dok svira radio
TTITLE7=Ajša
TTITLE8=Ne vjerujem tvojim usnama
TTITLE9=Što je s princezom moje vrele mladosti (U tvojim očima)
TTITLE10=Julija
TTITLE11=Ti si tu
TTITLE12=Kad te srce za mnom zaboli
TTITLE13=lete ptice, lete avioni
TTITLE14=Više ništa nije kao prije
TTITLE15=Struji struja
TTITLE16=Mašta moja
TTITLE17=Emily
TTITLE18=Od kad nisam tvoj
EXTD=
EXTT0=
EXTT1=
EXTT2=
EXTT3=
EXTT4=
EXTT5=
EXTT6=
EXTT7=
EXTT8=
EXTT9=
EXTT10=
EXTT11=
EXTT12=
EXTT13=
EXTT14=
EXTT15=
EXTT16=
EXTT17=
EXTT18=
PLAYORDER=
